<svg width="20" height="19" viewBox="0 0 20 19" fill="none" xmlns="http://www.w3.org/2000/svg">
<path d="M11.36 0.639999C12.9333 0.639999 14.3067 0.939999 15.48 1.54C16.6533 2.12667 17.5533 2.96 18.18 4.04C18.82 5.10667 19.14 6.34 19.14 7.74C19.14 8.87333 18.94 9.92667 18.54 10.9C18.1533 11.8733 17.5733 12.6533 16.8 13.24C16.04 13.8133 15.1333 14.1 14.08 14.1C13.3733 14.1 12.7867 13.96 12.32 13.68C11.8667 13.4 11.56 13.0067 11.4 12.5C11.0267 13.02 10.5467 13.4267 9.96 13.72C9.37333 14 8.73333 14.14 8.04 14.14C7.05333 14.14 6.27333 13.8467 5.7 13.26C5.14 12.66 4.86 11.8467 4.86 10.82C4.86 9.84667 5.06 8.93333 5.46 8.08C5.86 7.21333 6.41333 6.52 7.12 6C7.82667 5.48 8.62 5.22 9.5 5.22C10.62 5.22 11.38 5.62 11.78 6.42L11.96 5.36H14.72L13.84 10.38C13.8 10.62 13.78 10.8333 13.78 11.02C13.78 11.6067 14.04 11.9 14.56 11.9C15.2 11.9 15.6867 11.4933 16.02 10.68C16.3667 9.85333 16.54 8.90667 16.54 7.84C16.54 6.30667 16.0533 5.10667 15.08 4.24C14.12 3.37333 12.7667 2.94 11.02 2.94C9.52667 2.94 8.16667 3.3 6.94 4.02C5.72667 4.74 4.77333 5.72667 4.08 6.98C3.38667 8.22 3.04 9.58667 3.04 11.08C3.04 12.6933 3.50667 13.9467 4.44 14.84C5.38667 15.7333 6.70667 16.18 8.4 16.18C9.72 16.18 10.9 15.94 11.94 15.46L12.48 17.64C11.1733 18.2133 9.70667 18.5 8.08 18.5C6.56 18.5 5.22 18.2067 4.06 17.62C2.91333 17.0333 2.02667 16.2 1.4 15.12C0.773333 14.04 0.46 12.78 0.46 11.34C0.46 9.32667 0.933333 7.50667 1.88 5.88C2.82667 4.24 4.12667 2.96 5.78 2.04C7.44667 1.10667 9.30667 0.639999 11.36 0.639999ZM9.16 11.68C9.53333 11.68 9.88 11.5667 10.2 11.34C10.5333 11.1133 10.7933 10.8133 10.98 10.44C11.18 10.0533 11.28 9.64 11.28 9.2C11.28 8.74667 11.1533 8.38 10.9 8.1C10.6467 7.80667 10.3 7.66 9.86 7.66C9.27333 7.66 8.78667 7.91333 8.4 8.42C8.01333 8.92667 7.82 9.52667 7.82 10.22C7.82 10.66 7.93333 11.0133 8.16 11.28C8.38667 11.5467 8.72 11.68 9.16 11.68Z" fill="white"/>
</svg>
