<svg width="36" height="28" viewBox="0 0 36 28" fill="none" xmlns="http://www.w3.org/2000/svg">
<path d="M24.3577 13.495L24.43 13.4944C25.6158 13.4944 26.7485 13.7574 27.7884 14.2354L27.7262 14.2104C28.6742 14.614 29.5265 15.2742 30.2131 16.1368L30.2171 16.1414C30.7976 16.8488 31.1273 17.7862 31.14 18.7653V18.7686C31.1341 19.5657 30.9101 20.3397 30.5008 20.9779L30.507 20.968C30.0421 21.7065 29.445 22.3181 28.7572 22.7606L28.7295 22.7771L27.9608 23.2926L28.2016 24.2802C28.3433 24.9128 28.5565 25.5205 28.8357 26.0873L28.8193 26.0517C27.9286 25.6222 27.105 25.0239 26.3816 24.2809L26.3912 24.2901L26.0114 23.8985L25.5084 23.9605C25.1281 24.0145 24.7453 24.042 24.3622 24.0429H24.3599L24.2876 24.0436C23.1018 24.0436 21.9691 23.7805 20.9292 23.3025L20.9914 23.3276C20.0434 22.9239 19.1911 22.2637 18.5045 21.4012L18.5005 21.3965C17.9302 20.7208 17.5781 19.7932 17.5781 18.77C17.5781 17.7467 17.9336 19.001 18.5045 18.3252C19.1802 17.4723 21.2267 17.4171 22.1596 17.0113L21.7189 16.1276C22.6967 15.6747 21.4134 16.1427 22.5992 16.1427L24.3628 13.497H24.3588L24.3577 13.495ZM16.4449 19.4782C16.4498 20.6968 16.8274 21.1646 17.5097 22.0875L17.5047 22.0809C18.2662 23.1336 19.2383 23.9513 20.3352 24.4615L20.3838 24.4813C21.5272 25.0391 22.8559 25.3628 24.2492 25.3628L24.3633 25.3621H24.3577C24.8098 25.3608 25.2552 25.3311 25.6932 25.2738L25.6384 25.2797C26.7825 26.4639 28.1522 27.3128 29.6338 27.756L29.7005 27.7731C29.9848 27.8687 30.3262 27.9485 30.676 27.9966L30.7071 27.9999H30.7523C30.8406 28.0002 30.9258 27.9616 30.9908 27.8918C31.0614 27.8179 31.1106 27.7202 31.1316 27.6123L31.1321 27.609V27.5984C31.1423 27.578 31.1475 27.5548 31.1474 27.5312C31.1474 27.5094 31.1429 27.4896 31.1355 27.4712C31.1237 27.438 31.1183 27.403 31.1186 27.367V27.3657C31.1216 27.3521 31.1084 27.3193 31.079 27.2674L31.0259 27.1745L30.9637 27.0868L30.893 26.9938C30.8516 26.9389 30.7604 26.8205 30.6195 26.6385L30.3148 26.2469C30.2531 26.1678 30.1619 26.0322 30.0413 25.8401C29.9429 25.6878 29.8474 25.5151 29.7638 25.3344L29.7542 25.3127C29.6837 25.1549 29.6042 24.9523 29.5157 24.7048C29.4382 24.4958 29.3597 24.2354 29.2952 23.9684L29.2856 23.9222C30.1448 23.3732 30.8873 22.606 31.4582 21.6774L31.4718 21.6543C31.9899 20.8133 32.2694 19.8043 32.271 18.7686V18.7673C32.2661 17.5486 31.8885 16.372 31.2062 15.4491L31.2113 15.4557C30.4497 14.403 29.4776 13.5853 28.3807 13.0751L28.3321 13.0553C27.1887 12.4975 25.86 12.1738 24.4668 12.1738L24.3526 12.1745H24.3582L24.2497 12.1738C22.8565 12.1738 22.4906 15.1013 21.2793 15.6881L20.0971 17.5347C18.9855 18.0408 19.0432 17.4487 18.271 18.5099L17.5781 18.3252C16.8988 19.2466 16.4502 17.9075 16.4455 19.1227L16.4449 19.4782Z" fill="white"/>
<g clip-path="url(#clip0_104_145)">
<path d="M7.46671 9.89129C6.625 9.89129 5.94497 10.5713 5.94497 11.413C5.94497 12.2547 6.625 12.9348 7.46671 12.9348C8.30842 12.9348 8.98845 12.2547 8.98845 11.413C8.98845 10.5713 8.30842 9.89129 7.46671 9.89129ZM12.7928 9.89129C11.9511 9.89129 11.2711 10.5713 11.2711 11.413C11.2711 12.2547 11.9511 12.9348 12.7928 12.9348C13.6345 12.9348 14.3145 12.2547 14.3145 11.413C14.3145 10.5713 13.6345 9.89129 12.7928 9.89129ZM18.1189 9.89129C17.2772 9.89129 16.5971 10.5713 16.5971 11.413C16.5971 12.2547 17.2772 12.9348 18.1189 12.9348C18.9606 12.9348 19.6406 12.2547 19.6406 11.413C19.6406 10.5713 18.9606 9.89129 18.1189 9.89129ZM12.7928 1.52173C6.06861 1.52173 0.618879 5.94904 0.618879 11.413C0.618879 13.6766 1.56521 15.75 3.1345 17.4191C2.42594 19.2928 0.951759 20.8811 0.927982 20.9001C0.614123 21.233 0.528525 21.7181 0.709232 22.1365C0.889939 22.555 1.30366 22.8261 1.76018 22.8261C4.68478 22.8261 6.99116 21.6039 8.375 20.6243C9.74932 21.0571 11.233 21.3043 12.7928 21.3043C19.517 21.3043 24.9667 16.877 24.9667 11.413C24.9667 5.94904 19.517 1.52173 12.7928 1.52173ZM12.7928 19.0217C11.5231 19.0217 10.2677 18.8268 9.06454 18.4463L7.98505 18.1039L7.05774 18.7602C6.37771 19.2405 5.44565 19.7778 4.32336 20.1393C4.67051 19.5638 5.00815 18.9171 5.2697 18.2276L5.77377 16.8913L4.79415 15.8546C3.93342 14.9368 2.90149 13.4198 2.90149 11.413C2.90149 7.21874 7.33831 3.80434 12.7928 3.80434C18.2473 3.80434 22.6841 7.21874 22.6841 11.413C22.6841 15.6073 18.2473 19.0217 12.7928 19.0217Z" fill="white"/>
</g>
<defs>
<clipPath id="clip0_104_145">
<rect width="24.3478" height="24.3478" fill="white" transform="translate(0.618896)"/>
</clipPath>
</defs>
</svg>
