<svg width="32" height="29" viewBox="0 0 32 29" fill="none" xmlns="http://www.w3.org/2000/svg">
<path d="M15.3437 28.93C12.1253 28.93 4.1967 22.6565 1.22767 15.5066C1.13346 15.2797 1.0967 15.0331 1.12066 14.7885C1.14461 14.544 1.22854 14.3092 1.36499 14.1049C1.50144 13.9006 1.6862 13.7331 1.90289 13.6173C2.11958 13.5015 2.3615 13.4409 2.60719 13.441L8.5715 13.4403L11.1148 9.62551C11.2697 9.3929 11.4869 9.20847 11.7415 9.09322C11.9961 8.97797 12.278 8.93652 12.5551 8.9736C12.8321 9.01068 13.0931 9.12479 13.3085 9.30295C13.5238 9.48111 13.6849 9.71615 13.7732 9.98133L15.7944 16.0448L17.0878 14.1053C17.2242 13.9008 17.409 13.7331 17.6257 13.6171C17.8424 13.5011 18.0844 13.4404 18.3302 13.4403H22.81C23.2061 13.4403 23.5859 13.5977 23.8659 13.8777C24.146 14.1578 24.3033 14.5376 24.3033 14.9336C24.3033 15.3296 24.146 15.7095 23.8659 15.9895C23.5859 16.2696 23.2061 16.4269 22.81 16.4269H19.1294L16.5861 20.2417C16.4311 20.4743 16.214 20.6587 15.9594 20.774C15.7047 20.8893 15.4229 20.9307 15.1458 20.8936C14.8688 20.8565 14.6077 20.7424 14.3924 20.5643C14.177 20.3861 14.016 20.1511 13.9277 19.8859L11.9066 13.8224L10.613 15.7619C10.4767 15.9664 10.2919 16.1341 10.0752 16.2501C9.85846 16.3661 9.61645 16.4268 9.37064 16.4269L5.01328 16.4276C8.16022 21.8706 13.9539 25.8779 15.3495 25.9435C16.4549 25.891 21.1971 22.8418 24.5089 18.23C26.4878 15.4739 28.5862 11.2777 27.3467 6.94157C27.0289 5.84438 26.376 4.87401 25.4794 4.16629C24.5828 3.45858 23.4873 3.04896 22.3463 2.99476C21.0896 2.95967 19.8567 3.34219 18.8406 4.08246C17.8244 4.82274 17.0824 5.87899 16.7305 7.08594C16.6195 7.36298 16.4281 7.60044 16.1809 7.76769C15.9337 7.93494 15.6421 8.02433 15.3437 8.02433C15.0452 8.02433 14.7536 7.93494 14.5064 7.76769C14.2593 7.60044 14.0679 7.36298 13.9569 7.08594C13.6033 5.88001 12.8608 4.82486 11.8451 4.08488C10.8293 3.3449 9.59737 2.96163 8.3411 2.99476C7.20011 3.04896 6.10461 3.45858 5.20797 4.16629C4.31134 4.874 3.65844 5.84438 3.34069 6.94157C3.14489 7.6283 3.02508 8.33444 2.98341 9.04732C2.9726 9.24339 2.92322 9.4354 2.83808 9.61236C2.75295 9.78931 2.63374 9.94773 2.48729 10.0785C2.34083 10.2094 2.17001 10.31 1.9846 10.3747C1.79919 10.4394 1.60284 10.4668 1.4068 10.4555C1.21076 10.4442 1.01887 10.3943 0.842141 10.3087C0.665408 10.2231 0.507298 10.1035 0.376868 9.95671C0.246439 9.80992 0.146252 9.63883 0.0820479 9.45326C0.0178436 9.26768 -0.00911709 9.07126 0.00271036 8.87525C0.0561777 7.94273 0.212179 7.01894 0.467893 6.12057C0.95745 4.42444 1.96495 2.92376 3.34945 1.82845C4.73395 0.733142 6.42619 0.0980005 8.18946 0.0118736C9.57619 -0.0598539 10.9586 0.219071 12.2091 0.822878C13.4595 1.42669 14.5376 2.3359 15.3437 3.46652C16.1479 2.33382 17.2256 1.42304 18.4765 0.818998C19.7274 0.214956 21.1108 -0.062705 22.498 0.0118736C24.2612 0.0980056 25.9535 0.733148 27.3379 1.82845C28.7224 2.92376 29.7299 4.42443 30.2195 6.12056C31.8469 11.8209 29.1258 17.078 26.5563 20.4852C23.2227 24.9045 17.8782 28.93 15.3437 28.93Z" fill="#8F00FF"/>
<path d="M30.1394 13.4541H21.262C20.4449 13.4541 19.7825 14.1165 19.7825 14.9337C19.7825 15.7508 20.4449 16.4132 21.262 16.4132H30.1394C30.9566 16.4132 31.619 15.7508 31.619 14.9337C31.619 14.1165 30.9566 13.4541 30.1394 13.4541Z" fill="#8F00FF"/>
</svg>
