<svg width="97" height="22" viewBox="0 0 97 22" fill="none" xmlns="http://www.w3.org/2000/svg">
<path d="M20.5001 0H16.5001V11.5H20.5001V0Z" fill="white"/>
<path d="M20.5001 16H16.5001V21.5H20.5001V16Z" fill="white"/>
<path d="M33.5001 16H30.0001V21.5H33.5001V16Z" fill="white"/>
<path d="M30.0001 4.5V12H33.5001V4H39.5001V0.5H24.0001V4.5H30.0001Z" fill="white"/>
<path d="M57.0001 0.5H42.0001V4H48.0001V12H52.0001V4H57.0001V0.5Z" fill="white"/>
<path d="M52.0001 17H48.0001V21.5H52.0001V17Z" fill="white"/>
<path d="M64.0001 12H60.0001V0.5H66.0001L71.0001 12H67.0001L64.0001 5.5V12Z" fill="white"/>
<path d="M76.5001 0.5H73.0001V12H76.5001V0.5Z" fill="white"/>
<path d="M64.0001 17H60.0001V21.5H64.0001V17Z" fill="white"/>
<path d="M72.0001 21.5L69.5001 17H76.5001V21.5H72.0001Z" fill="white"/>
<path d="M11.5001 12C-1.5 10.5 5.83348 7.5 14.0001 6C-6.79982 7.2 0.83337 12 4.5001 13C15.5001 16 46.6561 17.4901 78 15.5C109.5 13.5 92.5001 6.5 83.0001 6C99.5 12.5 87.5 11.3333 77 12.5C62.3334 12.6667 29.0247 14.022 11.5001 12Z" fill="white"/>
</svg>
