<svg width="25" height="27" viewBox="0 0 25 27" fill="none" xmlns="http://www.w3.org/2000/svg">
<path d="M19.767 17.1249C19.0886 17.1284 18.4197 17.284 17.8096 17.5805C17.1994 17.8769 16.6636 18.3066 16.2417 18.8378L9.617 14.6962C9.85844 13.917 9.85844 13.0829 9.617 12.3037L16.2417 8.16213C16.9141 8.99471 17.8594 9.56244 18.9103 9.76475C19.9612 9.96705 21.0498 9.79087 21.9832 9.26741C22.9167 8.74396 23.6347 7.90701 24.0102 6.90484C24.3856 5.90267 24.3942 4.79996 24.0345 3.79204C23.6747 2.78412 22.9699 1.93606 22.0447 1.39809C21.1196 0.86011 20.0339 0.666942 18.98 0.852802C17.926 1.03866 16.9719 1.59155 16.2866 2.41353C15.6013 3.23551 15.229 4.27352 15.2357 5.34369C15.24 5.74895 15.301 6.15161 15.417 6.53994L8.79231 10.6815C8.20746 9.94525 7.40805 9.40917 6.50489 9.14758C5.60173 8.88599 4.63957 8.91184 3.75176 9.22155C2.86395 9.53126 2.09448 10.1095 1.55 10.8761C1.00552 11.6427 0.713013 12.5597 0.713013 13.4999C0.713013 14.4402 1.00552 15.3572 1.55 16.1238C2.09448 16.8904 2.86395 17.4686 3.75176 17.7783C4.63957 18.088 5.60173 18.1139 6.50489 17.8523C7.40805 17.5907 8.20746 17.0546 8.79231 16.3184L15.417 20.4599C15.301 20.8483 15.24 21.2509 15.2357 21.6562C15.2357 22.5524 15.5015 23.4285 15.9994 24.1736C16.4973 24.9188 17.205 25.4996 18.033 25.8425C18.8609 26.1855 19.772 26.2752 20.651 26.1004C21.53 25.9255 22.3374 25.494 22.9711 24.8603C23.6048 24.2266 24.0363 23.4192 24.2112 22.5402C24.386 21.6612 24.2963 20.7501 23.9533 19.9222C23.6104 19.0942 23.0296 18.3865 22.2844 17.8886C21.5393 17.3907 20.6632 17.1249 19.767 17.1249ZM19.767 2.62494C20.3047 2.62494 20.8304 2.78439 21.2774 3.08313C21.7245 3.38187 22.073 3.80648 22.2788 4.30327C22.4846 4.80006 22.5384 5.34671 22.4335 5.87409C22.3286 6.40148 22.0697 6.88591 21.6894 7.26614C21.3092 7.64636 20.8248 7.9053 20.2974 8.0102C19.77 8.11511 19.2234 8.06126 18.7266 7.85549C18.2298 7.64971 17.8052 7.30124 17.5064 6.85415C17.2077 6.40705 17.0482 5.88141 17.0482 5.34369C17.0482 4.62263 17.3347 3.93111 17.8445 3.42124C18.3544 2.91138 19.0459 2.62494 19.767 2.62494ZM5.267 16.2187C4.72928 16.2187 4.20364 16.0592 3.75654 15.7605C3.30944 15.4618 2.96098 15.0371 2.7552 14.5404C2.54942 14.0436 2.49558 13.4969 2.60049 12.9695C2.70539 12.4422 2.96433 11.9577 3.34455 11.5775C3.72477 11.1973 4.20921 10.9383 4.7366 10.8334C5.26398 10.7285 5.81063 10.7824 6.30742 10.9881C6.8042 11.1939 7.22881 11.5424 7.52755 11.9895C7.82629 12.4366 7.98575 12.9622 7.98575 13.4999C7.98575 14.221 7.69931 14.9125 7.18944 15.4224C6.67958 15.9323 5.98805 16.2187 5.267 16.2187ZM19.767 24.3749C19.2293 24.3749 18.7036 24.2155 18.2565 23.9168C17.8094 23.618 17.461 23.1934 17.2552 22.6966C17.0494 22.1998 16.9956 21.6532 17.1005 21.1258C17.2054 20.5984 17.4643 20.114 17.8445 19.7337C18.2248 19.3535 18.7092 19.0946 19.2366 18.9897C19.764 18.8848 20.3106 18.9386 20.8074 19.1444C21.3042 19.3502 21.7288 19.6986 22.0276 20.1457C22.3263 20.5928 22.4857 21.1185 22.4857 21.6562C22.4857 22.3772 22.1993 23.0688 21.6894 23.5786C21.1796 24.0885 20.4881 24.3749 19.767 24.3749Z" fill="white"/>
</svg>
