<svg width="29" height="29" viewBox="0 0 29 29" fill="none" xmlns="http://www.w3.org/2000/svg">
<path d="M20.8438 18.1252C20.1654 18.1286 19.4965 18.2843 18.8864 18.5807C18.2762 18.8772 17.7404 19.3068 17.3185 19.838L10.6938 15.6964C10.9352 14.9172 10.9352 14.0832 10.6938 13.3039L17.3185 9.16237C17.9909 9.99496 18.9362 10.5627 19.9871 10.765C21.038 10.9673 22.1266 10.7911 23.06 10.2677C23.9935 9.7442 24.7115 8.90726 25.0869 7.90509C25.4624 6.90291 25.471 5.8002 25.1113 4.79228C24.7515 3.78437 24.0467 2.93631 23.1215 2.39833C22.1964 1.86035 21.1107 1.66719 20.0567 1.85305C19.0028 2.03891 18.0487 2.5918 17.3634 3.41377C16.6781 4.23575 16.3058 5.27377 16.3125 6.34394C16.3168 6.74919 16.3778 7.15185 16.4938 7.54019L9.86909 11.6817C9.28424 10.9455 8.48483 10.4094 7.58167 10.1478C6.67852 9.88623 5.71635 9.91208 4.82854 10.2218C3.94073 10.5315 3.17126 11.1097 2.62678 11.8763C2.08231 12.6429 1.78979 13.5599 1.78979 14.5002C1.78979 15.4405 2.08231 16.3575 2.62678 17.124C3.17126 17.8906 3.94073 18.4689 4.82854 18.7786C5.71635 19.0883 6.67852 19.1141 7.58167 18.8525C8.48483 18.591 9.28424 18.0549 9.86909 17.3186L16.4938 21.4602C16.3778 21.8485 16.3168 22.2512 16.3125 22.6564C16.3125 23.5526 16.5783 24.4287 17.0762 25.1739C17.5741 25.919 18.2818 26.4998 19.1097 26.8428C19.9377 27.1857 20.8488 27.2755 21.7278 27.1006C22.6068 26.9258 23.4141 26.4942 24.0479 25.8605C24.6816 25.2268 25.1131 24.4194 25.288 23.5404C25.4628 22.6615 25.3731 21.7504 25.0301 20.9224C24.6871 20.0944 24.1064 19.3867 23.3612 18.8888C22.616 18.3909 21.74 18.1252 20.8438 18.1252V18.1252ZM20.8438 3.62519C21.3815 3.62519 21.9071 3.78464 22.3542 4.08338C22.8013 4.38212 23.1498 4.80673 23.3556 5.30351C23.5613 5.8003 23.6152 6.34695 23.5103 6.87434C23.4054 7.40172 23.1464 7.88616 22.7662 8.26638C22.386 8.64661 21.9016 8.90554 21.3742 9.01045C20.8468 9.11535 20.3001 9.06151 19.8034 8.85573C19.3066 8.64996 18.882 8.30149 18.5832 7.85439C18.2845 7.4073 18.125 6.88165 18.125 6.34394C18.125 5.62288 18.4115 4.93135 18.9213 4.42149C19.4312 3.91162 20.1227 3.62519 20.8438 3.62519V3.62519ZM6.34378 17.2189C5.80606 17.2189 5.28042 17.0595 4.83332 16.7607C4.38623 16.462 4.03776 16.0374 3.83198 15.5406C3.62621 15.0438 3.57237 14.4972 3.67727 13.9698C3.78217 13.4424 4.04111 12.958 4.42133 12.5777C4.80156 12.1975 5.28599 11.9386 5.81338 11.8337C6.34076 11.7288 6.88741 11.7826 7.3842 11.9884C7.88099 12.1942 8.3056 12.5426 8.60434 12.9897C8.90308 13.4368 9.06253 13.9625 9.06253 14.5002C9.06253 15.2212 8.77609 15.9128 8.26623 16.4226C7.75636 16.9325 7.06484 17.2189 6.34378 17.2189ZM20.8438 25.3752C20.3061 25.3752 19.7804 25.2157 19.3333 24.917C18.8862 24.6183 18.5378 24.1936 18.332 23.6969C18.1262 23.2001 18.0724 22.6534 18.1773 22.126C18.2822 21.5986 18.5411 21.1142 18.9213 20.734C19.3016 20.3538 19.786 20.0948 20.3134 19.9899C20.8408 19.885 21.3874 19.9389 21.8842 20.1446C22.381 20.3504 22.8056 20.6989 23.1043 21.146C23.4031 21.5931 23.5625 22.1187 23.5625 22.6564C23.5625 23.3775 23.2761 24.069 22.7662 24.5789C22.2564 25.0887 21.5648 25.3752 20.8438 25.3752V25.3752Z" fill="#8F00FF"/>
</svg>
