<svg width="80" height="80" viewBox="0 0 80 80" fill="none" xmlns="http://www.w3.org/2000/svg">
<circle cx="40" cy="40" r="40" fill="#2F2E41"/>
<g clip-path="url(#clip0_263_291)">
<path d="M58.2291 32.0318C58.0196 31.2844 57.6115 30.6078 57.0482 30.0739C56.469 29.5235 55.7591 29.1298 54.9855 28.9299C52.0902 28.1668 40.4907 28.1668 40.4907 28.1668C35.655 28.1118 30.8205 28.3538 26.0145 28.8914C25.2409 29.106 24.5323 29.5085 23.9517 30.0631C23.3813 30.6119 22.9681 31.2887 22.7523 32.0302C22.2338 34.8233 21.9819 37.6594 22 40.5002C21.9815 43.3384 22.2328 46.1735 22.7523 48.9701C22.9635 49.7085 23.3751 50.3822 23.9471 50.9265C24.5191 51.4707 25.2313 51.8638 26.0145 52.0719C28.9483 52.8335 40.4907 52.8335 40.4907 52.8335C45.3326 52.8886 50.1733 52.6466 54.9855 52.1089C55.7591 51.9091 56.469 51.5154 57.0482 50.965C57.6186 50.4208 58.0241 49.744 58.2276 49.0071C58.7596 46.2151 59.0183 43.3778 59 40.5356C59.04 37.6814 58.7816 34.8308 58.2291 32.0302V32.0318ZM36.8031 45.7788V35.223L46.4539 40.5017L36.8031 45.7788Z" fill="white"/>
</g>
<defs>
<clipPath id="clip0_263_291">
<rect width="37" height="37" fill="white" transform="translate(22 22)"/>
</clipPath>
</defs>
</svg>
