<svg width="22" height="22" viewBox="0 0 22 22" fill="none" xmlns="http://www.w3.org/2000/svg">
<path d="M21.1396 20.698C20.6355 21.148 19.9518 21.4009 19.2389 21.4009C18.5261 21.4009 17.8424 21.148 17.3383 20.698L11.4001 14.638L5.46183 20.696C5.21297 20.9218 4.9165 21.1014 4.58951 21.2245C4.26252 21.3475 3.91149 21.4115 3.55665 21.4128C3.20182 21.4141 2.85021 21.3526 2.52211 21.232C2.19401 21.1113 1.89591 20.9339 1.64501 20.7099C1.3941 20.4858 1.19535 20.2197 1.06023 19.9267C0.92511 19.6338 0.856286 19.3198 0.857731 19.003C0.859176 18.6862 0.93086 18.3728 1.06865 18.0808C1.20644 17.7889 1.40761 17.5242 1.66055 17.302L7.83847 11.002L1.65831 4.69798C1.40537 4.47579 1.2042 4.21108 1.06641 3.91912C0.92862 3.62717 0.856936 3.31375 0.855491 2.99693C0.854046 2.68012 0.92287 2.36618 1.05799 2.07323C1.19311 1.78029 1.39186 1.51413 1.64277 1.2901C1.89367 1.06608 2.19177 0.888627 2.51987 0.767982C2.84798 0.647338 3.19958 0.585888 3.55441 0.587178C3.90925 0.588468 4.26028 0.652472 4.58727 0.775498C4.91426 0.898524 5.21073 1.07814 5.45959 1.30398L11.4001 7.36598L17.3383 1.30398C17.5872 1.07814 17.8836 0.898524 18.2106 0.775498C18.5376 0.652472 18.8887 0.588468 19.2435 0.587178C19.5983 0.585888 19.9499 0.647338 20.278 0.767982C20.6061 0.888627 20.9042 1.06608 21.1551 1.2901C21.406 1.51413 21.6048 1.78029 21.7399 2.07323C21.875 2.36618 21.9438 2.68012 21.9424 2.99693C21.941 3.31375 21.8693 3.62717 21.7315 3.91912C21.5937 4.21108 21.3925 4.47579 21.1396 4.69798L14.9617 11.002L21.1396 17.302C21.3895 17.5249 21.5878 17.7896 21.723 18.0809C21.8583 18.3723 21.9279 18.6846 21.9279 19C21.9279 19.3154 21.8583 19.6277 21.723 19.919C21.5878 20.2104 21.3895 20.4751 21.1396 20.698Z" fill="#151515"/>
</svg>
