<svg width="80" height="80" viewBox="0 0 80 80" fill="none" xmlns="http://www.w3.org/2000/svg">
<circle cx="40" cy="40" r="40" fill="#2F2E41"/>
<path d="M40.5001 35.6835C37.8479 35.6835 35.6835 37.8478 35.6835 40.5C35.6835 43.1521 37.8479 45.3165 40.5001 45.3165C43.1522 45.3165 45.3166 43.1521 45.3166 40.5C45.3166 37.8478 43.1522 35.6835 40.5001 35.6835ZM54.946 40.5C54.946 38.5055 54.964 36.529 54.852 34.5381C54.74 32.2256 54.2125 30.1732 52.5215 28.4822C50.8268 26.7876 48.7781 26.2637 46.4656 26.1517C44.4711 26.0396 42.4946 26.0577 40.5037 26.0577C38.5091 26.0577 36.5327 26.0396 34.5418 26.1517C32.2293 26.2637 30.1769 26.7912 28.4859 28.4822C26.7913 30.1769 26.2673 32.2256 26.1553 34.5381C26.0433 36.5326 26.0614 38.5091 26.0614 40.5C26.0614 42.4909 26.0433 44.471 26.1553 46.4619C26.2673 48.7744 26.7949 50.8267 28.4859 52.5178C30.1805 54.2124 32.2293 54.7363 34.5418 54.8483C36.5363 54.9603 38.5127 54.9423 40.5037 54.9423C42.4982 54.9423 44.4747 54.9603 46.4656 54.8483C48.7781 54.7363 50.8304 54.2088 52.5215 52.5178C54.2161 50.8231 54.74 48.7744 54.852 46.4619C54.9676 44.471 54.946 42.4945 54.946 40.5ZM40.5001 47.9108C36.399 47.9108 33.0892 44.6011 33.0892 40.5C33.0892 36.3989 36.399 33.0892 40.5001 33.0892C44.6011 33.0892 47.9109 36.3989 47.9109 40.5C47.9109 44.6011 44.6011 47.9108 40.5001 47.9108ZM48.2144 34.5164C47.2569 34.5164 46.4837 33.7432 46.4837 32.7856C46.4837 31.8281 47.2569 31.0549 48.2144 31.0549C49.1719 31.0549 49.9452 31.8281 49.9452 32.7856C49.9455 33.013 49.9009 33.2382 49.814 33.4483C49.7271 33.6584 49.5997 33.8493 49.4389 34.0101C49.2781 34.1709 49.0872 34.2984 48.8771 34.3852C48.667 34.4721 48.4418 34.5167 48.2144 34.5164Z" fill="white"/>
</svg>
