<svg width="24" height="24" viewBox="0 0 24 24" fill="none" xmlns="http://www.w3.org/2000/svg">
<path d="M17.3333 8.22667C16.6188 7.77688 16.03 7.15325 15.6219 6.41408C15.2138 5.67491 14.9999 4.84433 15 4H2.61334C2.49371 4.00184 2.37486 4.01978 2.26001 4.05333L11.8933 13.6467L17.3333 8.22667Z" fill="white"/>
<path d="M20 9C19.5488 8.99609 19.1003 8.93105 18.6667 8.80667L12.86 14.5933C12.6102 14.8417 12.2722 14.9811 11.92 14.9811C11.5677 14.9811 11.2298 14.8417 10.98 14.5933L1.33332 5C1.30374 5.10869 1.28806 5.2207 1.28665 5.33333V18.6667C1.28665 19.0203 1.42713 19.3594 1.67718 19.6095C1.92722 19.8595 2.26636 20 2.61998 20H21.2866C21.6403 20 21.9794 19.8595 22.2295 19.6095C22.4795 19.3594 22.62 19.0203 22.62 18.6667V8.26C21.8326 8.74589 20.9252 9.00218 20 9ZM3.53332 18.6667H2.60665V17.7133L7.45332 12.9067L8.39332 13.8467L3.53332 18.6667ZM21.2733 18.6667H20.34L15.48 13.8467L16.42 12.9067L21.2666 17.7133L21.2733 18.6667Z" fill="white"/>
<path d="M20 7.33329C21.8409 7.33329 23.3333 5.84091 23.3333 3.99996C23.3333 2.15901 21.8409 0.666626 20 0.666626C18.159 0.666626 16.6667 2.15901 16.6667 3.99996C16.6667 5.84091 18.159 7.33329 20 7.33329Z" fill="white"/>
</svg>
