<svg width="80" height="80" viewBox="0 0 80 80" fill="none" xmlns="http://www.w3.org/2000/svg">
<circle cx="40" cy="40" r="40" fill="#2F2E41"/>
<path d="M51.7872 30.575C51.5531 30.454 51.3252 30.3214 51.1043 30.1776C50.462 29.753 49.8732 29.2527 49.3504 28.6875C48.0424 27.1908 47.5539 25.6725 47.3739 24.6095H47.3812C47.2309 23.7271 47.293 23.1562 47.3024 23.1562H41.3448V46.1931C41.3448 46.5024 41.3448 46.8081 41.3318 47.1101C41.3318 47.1477 41.3282 47.1824 41.326 47.2229C41.326 47.2395 41.326 47.2568 41.3224 47.2742V47.2872C41.2596 48.1137 40.9947 48.9122 40.5508 49.6123C40.107 50.3125 39.498 50.8928 38.7772 51.3023C38.0261 51.7296 37.1765 51.9538 36.3122 51.9527C33.5365 51.9527 31.2869 49.6893 31.2869 46.8941C31.2869 44.0988 33.5365 41.8355 36.3122 41.8355C36.8377 41.835 37.3599 41.9177 37.8595 42.0804L37.8667 36.0145C36.3501 35.8186 34.8094 35.9391 33.3417 36.3685C31.874 36.7978 30.5112 37.5267 29.3393 38.5091C28.3125 39.4013 27.4492 40.4658 26.7884 41.6548C26.5369 42.0884 25.588 43.8307 25.4731 46.6585C25.4009 48.2635 25.8829 49.9263 26.1127 50.6136V50.628C26.2572 51.0327 26.8173 52.4137 27.73 53.5779C28.466 54.5118 29.3355 55.3321 30.3106 56.0125V55.9981L30.325 56.0125C33.2092 57.9724 36.4069 57.8438 36.4069 57.8438C36.9605 57.8213 38.8148 57.8438 40.9206 56.8458C43.2562 55.7394 44.5859 54.091 44.5859 54.091C45.4354 53.1061 46.1109 51.9836 46.5834 50.7718C47.1225 49.3547 47.3024 47.655 47.3024 46.9757V34.7542C47.3747 34.7975 48.3372 35.4342 48.3372 35.4342C48.3372 35.4342 49.724 36.323 51.8876 36.9019C53.4399 37.3138 55.5313 37.4005 55.5313 37.4005V31.4863C54.7985 31.5658 53.3106 31.3346 51.7872 30.575Z" fill="white"/>
</svg>
